<svg xmlns="http://www.w3.org/2000/svg" viewBox="0 0 50 50"><circle cx="25" cy="25" r="24" fill="#FFD21F"/><circle cx="25" cy="25" r="24" fill="#FFD21F"/><circle cx="25" cy="25" r="24" fill="#FFD21F"/><path fill="#FFD21F" d="M49 25c0 4.9-1.4 9.4-3.9 13.1-9.5 14.5-30.7 14.5-40.2 0C-5.4 22.4 5.7 1 25 1c13.3 0 24 10.7 24 24z"/><path fill="#4A555A" d="M43.2 40.6C38.9 35.4 32.3 32 25 32c-7.3 0-13.9 3.3-18.2 8.6 9.6 11.2 26.8 11.2 36.4 0z" opacity=".05"/><path fill="#FAF077" d="M43.1 9.2c-4.2-3.7-9.7-5.9-15.8-5.9-20.7 0-31.4 24.5-18 39.8C-7.4 28.7 2.7 1 25 1c7.2 0 13.7 3.2 18.1 8.2z" opacity=".5"/><circle cx="25.1" cy="25.9" r="17.7" fill="#FDE74A"/><path fill="#FAFDFF" d="M19.6 37.8v5c3.1 1 6.4 1.2 9.7.4v-5.4h-9.7z" opacity=".2"/><circle cx="25.1" cy="24.6" r="17.6" fill="#FBB217"/><circle cx="25.1" cy="25.2" r="16" fill="#FFD21F"/><path fill="#FBB217" d="M24.7 33.5V32c-2-.2-3.7-1-5.3-2.3l1.6-1.9c1.2 1 2.4 1.7 3.7 1.9v-4.2c-1.6-.4-2.8-.9-3.6-1.5-1.4-1.2-1.7-4.2.2-5.9.9-.8 2-1.2 3.4-1.3v-1.1h1.4v1.1c1.6.1 3.1.7 4.5 1.6l-1.4 2c-.9-.7-2-1.1-3.1-1.3v4.1h.1c1.7.4 2.9.9 3.6 1.6.8.7 1.2 1.6 1.2 2.9 0 1.3-.4 2.3-1.3 3.1-.9.8-2.1 1.2-3.5 1.3v1.6h-1.5zm-1.5-13.9c-.8.7-.7 1.8-.1 2.3.3.3.8.6 1.6.8V19c-.7.1-1.2.3-1.5.6zm4.5 9.5c.4-.3.6-.7.6-1.3 0-.5-.2-.9-.5-1.2-.3-.3-.9-.6-1.8-.8v3.9c.7-.1 1.3-.3 1.7-.6z"/><path fill="#4A555A" d="M25 29.7c-5 0-9.6 1.5-13.4 4.1 6.3 9.9 20.6 9.9 27 .1-3.9-2.6-8.6-4.2-13.6-4.2z" opacity=".05"/></svg>